PathFileType	4	(X/Y/Z)	D:\Share\Shared_Data\Ergonomics\Sit To Stand Pertubation\S0\Free STS.trc
DataRate	CameraRate	NumFrames	NumMarkers	Units	OrigDataRate	OrigDataStartFrame	OrigNumFrames	
100	100	11	18	m	100	3264	211
Frame#	Time	R_Toe			R_ASIS			R_Pelvis			V_Sacral			L_Pelvis			L_ASIS			Clavical			R_Acromium			L_Acromium			Sternum			Torso			R_Thigh_Med			R_Thigh_Lat			R_Thigh			R_Shank_Med			R_Shank_Lat			R_Shank			R_Heel			
		X1	Y1	Z1	X2	Y2	Z2	X3	Y3	Z3	X4	Y4	Z4	X5	Y5	Z5	X6	Y6	Z6	X7	Y7	Z7	X8	Y8	Z8	X9	Y9	Z9	X10	Y10	Z10	X11	Y11	Z11	X12	Y12	Z12	X13	Y13	Z13	X14	Y14	Z14	X15	Y15	Z15	X16	Y16	Z16	X17	Y17	Z17	X18	Y18	Z18	

3264	19.06	0.37173859	0.052507317	0.14188948	-0.073002037	0.7440816	0.15337196	-0.20122798	0.72058057	0.19601979	-0.31097055	0.68295392	-0.034833832	-0.16992424	0.71243335	-0.2132543	-0.051739525	0.73988776	-0.16338954	-0.045381145	1.1146362	-0.015308228	-0.12697269	1.1792996	0.12606627	-0.13352866	1.1799863	-0.16610246	-0.01831706	1.0205666	-0.031503368	-0.042413738	1.0651609	-0.13766832	0.28670276	0.49530612	0.084708557	0.2613533	0.51243292	0.21722343	0.18951624	0.64579346	0.13152789	0.25100233	0.10657993	0.11134058	0.1944455	0.090396873	0.19898886	0.23745583	0.31216339	0.22538002	0.15474487	0.047633373	0.15173056
3265	19.07	0.37169022	0.052550613	0.14190767	-0.07281675	0.74387537	0.15333328	-0.2009668	0.72076733	0.19599362	-0.31079205	0.68326428	-0.03485059	-0.16976215	0.71261261	-0.21330211	-0.051460907	0.73976227	-0.16344476	-0.042908443	1.1141212	-0.015302529	-0.12413135	1.179121	0.12608403	-0.13074306	1.1799371	-0.16603156	-0.016370693	1.0199132	-0.031519846	-0.040151714	1.0646852	-0.13762715	0.28659149	0.49534137	0.084782539	0.26120596	0.51244653	0.21728845	0.1895043	0.6458197	0.13158635	0.25097397	0.10660522	0.11133712	0.1943882	0.090393089	0.19896609	0.23731976	0.31216794	0.22540521	0.15471918	0.047617966	0.15169777
3266	19.08	0.37163782	0.052597839	0.14193399	-0.072639923	0.74363055	0.15328668	-0.20068071	0.72096088	0.19596175	-0.31059802	0.68359851	-0.034870296	-0.16958273	0.71279877	-0.21335327	-0.051142773	0.73963037	-0.16350519	-0.040309566	1.1135658	-0.015291949	-0.12115106	1.1789158	0.12610708	-0.12781529	1.1798667	-0.16595345	-0.014322558	1.0192151	-0.031533722	-0.037778378	1.064175	-0.13758389	0.28648465	0.49536865	0.084864571	0.26105896	0.51245697	0.21735736	0.18949716	0.64583923	0.13164583	0.25094467	0.10662891	0.11133467	0.19432397	0.090387535	0.19894081	0.23717676	0.31217081	0.22543338	0.15469073	0.04759956	0.15165988
3267	19.09	0.37158295	0.052647453	0.14196704	-0.07243074	0.74337817	0.15323647	-0.20036922	0.72116193	0.19592625	-0.31038721	0.68395807	-0.03489278	-0.16938066	0.71299469	-0.21340729	-0.05078331	0.7394917	-0.1635708	-0.037582333	1.1129669	-0.015275093	-0.11802776	1.1786816	0.1261373	-0.12473846	1.1797731	-0.1658671	-0.012169503	1.018469	-0.031543501	-0.035290264	1.0636271	-0.1375372	0.28638187	0.49538644	0.084952896	0.26091687	0.5124635	0.21742924	0.18949615	0.64584967	0.13170392	0.25091522	0.10665014	0.11133213	0.19425455	0.090380356	0.19891324	0.23703065	0.31217142	0.22546355	0.15466084	0.047578396	0.15161661
3268	19.1	0.37152658	0.052698162	0.14200484	-0.072164009	0.74313715	0.15318593	-0.20003223	0.72137097	0.19588942	-0.31015878	0.68434381	-0.034917988	-0.16914815	0.7132038	-0.21346284	-0.050380573	0.73934625	-0.16364127	-0.034724449	1.1123218	-0.015250373	-0.11475755	1.1784167	0.12617645	-0.12150603	1.1796544	-0.16577127	-0.0099089241	1.0176718	-0.031547346	-0.03268343	1.0630386	-0.13748499	0.28628238	0.49539417	0.085045708	0.26078412	0.51246576	0.21750362	0.18950281	0.6458501	0.1317587	0.2508866	0.10666824	0.11132786	0.19418161	0.090371819	0.19888332	0.23688606	0.31216891	0.22549471	0.15463075	0.047554527	0.15156744
3269	19.11	0.3714689	0.052748981	0.14204536	-0.071830261	0.74291394	0.15313704	-0.19966957	0.72158862	0.19585321	-0.30991302	0.68475684	-0.034945728	-0.16887856	0.71342804	-0.2135177	-0.04993248	0.73919531	-0.16371544	-0.031733799	1.1116274	-0.015216106	-0.11133734	1.1781189	0.12622592	-0.11811243	1.1795076	-0.16566487	-0.0075389762	1.0168217	-0.031543005	-0.029953962	1.0624061	-0.13742442	0.28618558	0.4953924	0.085141083	0.26066449	0.51246301	0.21758026	0.18951837	0.64584045	0.13180952	0.2508595	0.10668291	0.11131991	0.19410646	0.090362129	0.19885039	0.23674721	0.31216235	0.22552577	0.1546011	0.047527592	0.15151161
3270	19.12	0.37140967	0.052799076	0.1420871	-0.071430824	0.74270789	0.1530909	-0.19928094	0.72181494	0.19581903	-0.30965027	0.68519781	-0.034975513	-0.16856982	0.71366797	-0.21357082	-0.049437347	0.73903967	-0.1637915	-0.028608818	1.1108822	-0.015170503	-0.10776527	1.177787	0.12628651	-0.11455304	1.1793297	-0.16554671	-0.0050589776	1.0159164	-0.031527773	-0.027098486	1.0617266	-0.13735225	0.28609149	0.49538226	0.085237083	0.2605603	0.51245459	0.21765915	0.18954395	0.64582135	0.13185713	0.25083435	0.10669398	0.11130643	0.19403	0.090351318	0.19881342	0.2366167	0.31215091	0.22555542	0.15457175	0.04749675	0.1514482
3271	19.13	0.37134869	0.052847782	0.14212924	-0.070972633	0.74251373	0.15304816	-0.19886584	0.72205017	0.19578786	-0.30936938	0.68566748	-0.035006733	-0.1682242	0.71392267	-0.21362343	-0.04889603	0.73887952	-0.16386705	-0.025348505	1.1100831	-0.015111584	-0.10404055	1.1774186	0.12635858	-0.11082414	1.1791185	-0.16541562	-0.0024696853	1.0149542	-0.031498585	-0.024114159	1.0609965	-0.13726469	0.28600101	0.49536511	0.085332016	0.26047232	0.51243933	0.2177403	0.18958032	0.6457934	0.13190349	0.25081128	0.10670127	0.11128621	0.19395268	0.090339088	0.19877133	0.23649521	0.31213431	0.2255825	0.15454208	0.04746106	0.15137642
3272	19.14	0.37128656	0.052894791	0.14217203	-0.070463219	0.74232458	0.15300948	-0.19842342	0.72229517	0.19576021	-0.30906754	0.68616608	-0.035038746	-0.16784544	0.71419092	-0.21367705	-0.048315418	0.73871283	-0.16393918	-0.021952425	1.1092281	-0.01503728	-0.10016304	1.1770114	0.12644222	-0.10692317	1.1788719	-0.16527049	0.00022698721	1.0139333	-0.031452387	-0.020998508	1.0602131	-0.13715823	0.28591565	0.49534177	0.085424576	0.26039975	0.51241602	0.21782356	0.18962808	0.64575732	0.13195125	0.25079059	0.10670445	0.11125891	0.19387445	0.090324875	0.19872351	0.23638165	0.31211267	0.22560596	0.15451173	0.047419941	0.15129585
3273	19.15	0.37122467	0.052939983	0.14221677	-0.069908112	0.74213464	0.15297527	-0.19795215	0.72255072	0.19573592	-0.30874103	0.6866944	-0.035070961	-0.16743587	0.71447174	-0.21373094	-0.047710728	0.73853491	-0.16400453	-0.018419914	1.1083156	-0.014945866	-0.096132942	1.1765624	0.1265374	-0.10284876	1.1785885	-0.16511049	0.0030285206	1.0128523	-0.031386641	-0.017749662	1.059375	-0.13702985	0.28583704	0.49531235	0.085514053	0.26034106	0.51238361	0.21790855	0.18968793	0.6457135	0.13200298	0.25077223	0.10670292	0.11122539	0.19379514	0.090307953	0.19866971	0.23627365	0.31208643	0.22562495	0.15448083	0.047373363	0.15120653
3274	19.16	0.37116479	0.052983318	0.14226547	-0.069310989	0.74193933	0.15294592	-0.19744928	0.72281799	0.19571432	-0.30838596	0.68725336	-0.035102764	-0.16699632	0.71476562	-0.21378296	-0.047102573	0.73833887	-0.16406029	-0.014749095	1.107344	-0.014836409	-0.091950386	1.1760688	0.12664368	-0.098600754	1.1782666	-0.16493521	0.0059322753	1.0117101	-0.031299631	-0.014366988	1.0584817	-0.13687758	0.28576617	0.49527603	0.085600403	0.26029428	0.5123418	0.21799451	0.1897605	0.64566235	0.13206041	0.25075594	0.10669601	0.11118745	0.19371469	0.090287674	0.19861008	0.2361683	0.31205637	0.22563905	0.15444986	0.047321766	0.15110928
